<?xml version="1.0" standalone="no"?>
<!DOCTYPE svg PUBLIC "-//W3C//DTD SVG 20010904//EN"
 "http://www.w3.org/TR/2001/REC-SVG-20010904/DTD/svg10.dtd">
<svg version="1.0" xmlns="http://www.w3.org/2000/svg"
 width="256.000000pt" height="256.000000pt" viewBox="0 0 256.000000 256.000000"
 preserveAspectRatio="xMidYMid meet">

<g transform="translate(0.000000,256.000000) scale(0.100000,-0.100000)"
fill="#000000" stroke="none">
<path d="M451 2550 c0 -8 4 -24 9 -35 5 -13 9 -14 9 -5 0 8 -4 24 -9 35 -5 13
-9 14 -9 5z"/>
<path d="M668 2548 c18 -18 15 -31 -5 -24 -15 5 -15 4 1 -9 23 -18 36 -19 36
-4 0 18 -20 49 -32 49 -9 0 -9 -3 0 -12z"/>
<path d="M1582 2542 c-2 -7 -2 -16 2 -19 3 -4 6 0 6 9 0 11 8 13 30 10 17 -2
30 0 30 4 0 14 -62 10 -68 -4z"/>
<path d="M1731 2544 c0 -11 3 -14 6 -6 3 7 2 16 -1 19 -3 4 -6 -2 -5 -13z"/>
<path d="M1982 2534 c-1 -18 -9 -45 -17 -60 -8 -16 -14 -40 -14 -54 1 -18 4
-14 10 14 5 22 14 45 20 52 6 7 9 28 6 46 l-4 33 -1 -31z"/>
<path d="M2061 2543 c-1 -26 -19 -31 -27 -8 -4 8 -11 15 -17 15 -6 0 -1 -10
11 -22 25 -25 47 -14 39 18 -4 16 -5 15 -6 -3z"/>
<path d="M2113 2546 c-10 -11 -9 -15 2 -20 10 -4 15 1 15 14 0 23 -1 24 -17 6z"/>
<path d="M502 2527 c-7 -8 -8 -18 -1 -27 8 -12 9 -11 7 5 -3 17 2 20 27 18 22
-2 26 0 15 7 -21 13 -36 12 -48 -3z"/>
<path d="M586 2515 c10 -8 23 -15 28 -15 6 0 1 7 -10 15 -10 8 -23 15 -28 15
-6 0 -1 -7 10 -15z"/>
<path d="M1484 2516 c-3 -8 -4 -27 -2 -43 2 -22 8 -28 27 -28 13 0 25 6 27 13
1 7 0 8 -3 2 -2 -5 -13 -10 -24 -10 -15 0 -19 7 -19 36 0 33 2 36 25 32 13 -3
22 -1 19 3 -8 14 -44 10 -50 -5z"/>
<path d="M2086 2505 c5 -19 1 -30 -12 -41 -18 -14 -18 -14 4 -4 23 11 31 53
12 65 -7 4 -8 -3 -4 -20z"/>
<path d="M110 2495 c-9 -10 -9 -15 -1 -15 6 0 11 5 11 10 0 6 4 10 9 10 6 0 6
-12 2 -27 -4 -16 -4 -41 0 -58 l7 -30 0 35 c-1 19 3 47 7 63 5 21 4 27 -8 27
-8 0 -20 -7 -27 -15z"/>
<path d="M1728 2483 c5 -21 7 -23 10 -9 2 10 0 22 -6 28 -6 6 -7 0 -4 -19z"/>
<path d="M1757 2503 c-13 -12 -7 -33 8 -33 21 0 19 -18 -2 -23 -16 -4 -16 -5
-1 -6 25 -2 34 20 14 35 -10 7 -15 17 -11 23 7 12 2 15 -8 4z"/>
<path d="M2465 2485 c-16 -14 -35 -23 -41 -21 -7 3 -29 -2 -50 -9 -35 -13 -36
-14 -12 -15 15 0 30 5 33 10 4 6 15 8 26 5 12 -4 28 3 46 19 15 14 33 26 38
26 17 0 35 -22 35 -41 0 -10 4 -20 9 -24 10 -5 -1 44 -14 65 -10 17 -38 11
-70 -15z"/>
<path d="M1598 2488 c-2 -7 -1 -26 3 -43 4 -16 7 -24 8 -17 0 6 7 12 15 12 8
0 17 6 19 13 4 10 6 10 6 0 1 -15 41 -18 41 -3 0 5 -7 7 -15 4 -8 -4 -17 1
-21 10 -6 15 -8 15 -20 -1 -11 -15 -15 -16 -23 -4 -5 8 -7 20 -4 28 3 7 3 13
0 13 -3 0 -7 -6 -9 -12z"/>
<path d="M1697 2485 c-4 -8 -2 -17 3 -20 6 -4 10 3 10 14 0 25 -6 27 -13 6z"/>
<path d="M26 2482 c-2 -4 11 -6 30 -4 19 2 34 6 34 8 0 8 -59 4 -64 -4z"/>
<path d="M520 2487 c0 -3 12 -12 26 -22 15 -9 23 -12 20 -6 -7 11 -46 35 -46
28z"/>
<path d="M2000 2473 c0 -26 -29 -106 -45 -123 -7 -8 -17 -27 -20 -42 -8 -30
-23 -36 -44 -15 -10 10 -11 9 -6 -5 14 -36 41 -19 73 45 17 34 36 79 43 99 7
21 17 34 23 31 6 -4 5 1 -3 10 -17 21 -21 21 -21 0z"/>
<path d="M462 2460 c-7 -11 -20 -20 -29 -20 -33 0 -103 -33 -103 -48 0 -14 1
-14 13 0 6 9 37 24 69 33 31 9 59 23 62 32 9 23 2 25 -12 3z"/>
<path d="M25 2449 c-13 -20 5 -23 38 -5 30 15 20 15 -20 -1 -11 -4 -14 -3 -9
5 4 7 5 12 2 12 -3 0 -8 -5 -11 -11z"/>
<path d="M1550 2448 c0 -4 9 -8 20 -8 11 0 20 4 20 8 0 4 -9 8 -20 8 -11 0
-20 -4 -20 -8z"/>
<path d="M588 2443 c6 -2 18 -2 25 0 6 3 1 5 -13 5 -14 0 -19 -2 -12 -5z"/>
<path d="M86 2423 c-6 -14 -5 -15 5 -6 7 7 10 15 7 18 -3 3 -9 -2 -12 -12z"/>
<path d="M491 2415 c-1 -25 26 -114 38 -129 6 -7 6 -17 0 -26 -8 -13 -11 -13
-23 3 -8 10 -20 15 -29 11 -11 -4 -16 1 -19 17 -2 12 -9 24 -16 25 -7 1 -8 0
-2 -3 5 -2 10 -16 10 -29 0 -19 5 -24 18 -22 11 2 27 -4 37 -12 15 -13 19 -12
31 5 10 13 11 22 3 32 -6 7 -20 43 -30 80 -10 38 -18 59 -18 48z"/>
<path d="M510 2426 c0 -2 7 -7 16 -10 8 -3 12 -2 9 4 -6 10 -25 14 -25 6z"/>
<path d="M625 2420 c6 -10 2 -11 -20 -6 -25 6 -27 5 -21 -18 7 -30 -10 -45
-19 -15 -4 11 -9 18 -12 16 -2 -3 1 -15 7 -27 9 -17 14 -19 26 -9 8 6 12 20 9
30 -5 13 -1 16 13 12 23 -5 38 12 21 23 -8 5 -9 3 -4 -6z"/>
<path d="M677 2409 c7 -7 15 -10 18 -7 3 3 -2 9 -12 12 -14 6 -15 5 -6 -5z"/>
<path d="M1555 2400 c-25 -28 -16 -97 20 -144 26 -34 24 -48 -3 -26 -7 5 -6 3
2 -6 17 -20 38 -10 29 14 -5 12 1 11 20 -7 42 -38 32 -85 -13 -61 -11 6 -20 8
-20 6 0 -11 40 -26 54 -20 22 9 20 47 -4 69 -25 23 -48 99 -44 145 l3 35 -8
-34 c-5 -19 -5 -47 0 -65 15 -52 12 -63 -12 -39 -30 29 -38 107 -14 133 10 11
16 20 13 20 -3 0 -13 -9 -23 -20z"/>
<path d="M1730 2406 c0 -8 4 -17 9 -20 5 -4 7 3 4 14 -6 23 -13 26 -13 6z"/>
<path d="M1816 2406 c4 -10 17 -16 38 -15 27 2 28 2 6 6 -14 3 -31 10 -38 15
-9 8 -11 7 -6 -6z"/>
<path d="M61 2399 c-1 -9 -8 -19 -16 -23 -21 -8 -19 -36 3 -36 15 -1 15 -2 -2
-15 -22 -17 -10 -20 14 -5 13 9 12 12 -4 25 -19 14 -19 15 -2 28 11 8 16 20
13 28 -4 11 -6 10 -6 -2z"/>
<path d="M724 2396 c21 -17 14 -36 -14 -36 -25 0 -32 -14 -47 -80 -16 -74 -16
-93 2 -116 13 -17 14 -16 4 11 -8 22 -7 48 3 100 14 65 16 70 46 77 37 10 42
33 10 48 -22 10 -22 10 -4 -4z"/>
<path d="M100 2375 c-6 -8 -10 -19 -8 -24 1 -6 8 1 15 14 13 28 11 31 -7 10z"/>
<path d="M402 2379 c10 -5 15 -17 12 -27 -5 -13 -4 -14 4 -3 13 19 4 41 -17
41 -14 -1 -14 -2 1 -11z"/>
<path d="M373 2345 c0 -22 2 -30 4 -17 2 12 2 30 0 40 -3 9 -5 -1 -4 -23z"/>
<path d="M1791 2354 c-1 -20 26 -41 37 -29 3 3 0 5 -7 5 -6 0 -16 10 -21 23
-9 22 -9 22 -9 1z"/>
<path d="M1930 2361 c0 -7 -4 -9 -10 -6 -5 3 -10 1 -10 -4 0 -6 4 -11 9 -11
13 0 25 20 17 27 -3 4 -6 1 -6 -6z"/>
<path d="M1142 2313 c3 -43 6 -49 45 -72 23 -14 58 -36 77 -48 20 -12 36 -21
36 -18 0 5 -85 62 -121 81 -28 14 -31 19 -27 60 2 24 -1 44 -5 44 -4 0 -7 -21
-5 -47z"/>
<path d="M1283 2328 c2 -28 -34 -37 -61 -16 -15 12 -16 11 -3 -4 16 -21 54
-24 68 -5 12 15 13 47 1 47 -4 0 -7 -10 -5 -22z"/>
<path d="M341 2324 c0 -11 3 -14 6 -6 3 7 2 16 -1 19 -3 4 -6 -2 -5 -13z"/>
<path d="M1177 2329 c7 -7 15 -10 18 -7 3 3 -2 9 -12 12 -14 6 -15 5 -6 -5z"/>
<path d="M1860 2336 c0 -2 8 -10 18 -17 15 -13 16 -12 3 4 -13 16 -21 21 -21
13z"/>
<path d="M1368 2323 c18 -2 45 -2 60 0 15 2 0 4 -33 4 -33 0 -45 -2 -27 -4z"/>
<path d="M93 2270 c2 -49 20 -62 25 -17 2 15 7 27 12 27 5 0 11 -12 13 -27 l4
-28 2 29 c1 21 5 27 16 22 8 -3 15 -1 15 4 0 6 -18 10 -39 10 -22 0 -42 6 -45
13 -3 6 -4 -8 -3 -33z m14 -27 c-3 -10 -5 -4 -5 12 0 17 2 24 5 18 2 -7 2 -21
0 -30z"/>
<path d="M1501 2294 c-1 -13 10 -29 27 -39 l27 -18 -21 24 c-12 13 -24 31 -27
39 -4 10 -6 8 -6 -6z"/>
<path d="M1334 2276 c-3 -14 -14 -32 -25 -42 -21 -19 -25 -34 -8 -34 5 0 8 4
5 9 -3 5 1 15 10 22 9 7 20 23 25 36 9 23 43 32 54 13 3 -5 18 -9 33 -9 27 2
27 2 2 6 -14 3 -29 9 -34 14 -20 19 -55 10 -62 -15z"/>
<path d="M0 2286 c0 -2 7 -6 15 -10 8 -3 15 -1 15 4 0 6 -7 10 -15 10 -8 0
-15 -2 -15 -4z"/>
<path d="M36 2274 c-3 -9 -2 -23 4 -32 8 -14 9 -12 10 12 0 21 4 27 15 22 8
-3 15 -1 15 4 0 16 -37 11 -44 -6z"/>
<path d="M195 2280 c-3 -5 0 -7 9 -4 10 4 16 -3 19 -23 4 -27 4 -27 6 5 1 31
-20 45 -34 22z"/>
<path d="M241 2258 c2 -32 2 -32 6 -5 3 20 9 27 19 23 8 -3 14 -1 14 4 0 6 -9
10 -20 10 -16 0 -20 -6 -19 -32z"/>
<path d="M297 2283 c-11 -10 -8 -51 4 -59 6 -3 16 -1 22 5 9 9 8 11 -5 6 -15
-6 -18 -2 -18 20 0 20 4 26 15 21 8 -3 15 -1 15 4 0 11 -23 13 -33 3z"/>
<path d="M343 2258 c2 -32 27 -47 33 -20 1 7 0 8 -3 2 -9 -19 -22 -10 -27 20
-6 30 -6 30 -3 -2z"/>
<path d="M2123 2240 c-13 -15 -23 -35 -23 -43 0 -8 -8 -25 -18 -38 -29 -39
-66 -115 -48 -100 8 7 18 23 22 34 4 12 17 38 30 57 13 19 24 42 24 51 0 10
14 29 31 43 17 14 25 26 17 25 -7 0 -23 -13 -35 -29z"/>
<path d="M190 2246 c0 -8 4 -17 8 -20 4 -2 8 4 8 15 0 10 -4 19 -8 19 -4 0 -8
-6 -8 -14z"/>
<path d="M1500 2246 c0 -2 7 -7 16 -10 8 -3 12 -2 9 4 -6 10 -25 14 -25 6z"/>
<path d="M2535 2217 c-10 -19 -15 -40 -12 -48 4 -9 6 -7 6 6 1 11 8 31 17 43
9 13 14 25 12 28 -3 2 -13 -11 -23 -29z"/>
<path d="M2447 2223 c-3 -5 8 -8 24 -8 16 0 29 3 29 8 0 4 -11 7 -24 7 -14 0
-27 -3 -29 -7z"/>
<path d="M1378 2210 c23 -10 29 -34 11 -46 -7 -4 -16 1 -21 10 -5 9 -14 16
-21 16 -8 0 -6 -4 3 -11 10 -7 11 -12 4 -15 -6 -3 -20 -11 -30 -19 -16 -12
-17 -16 -5 -27 12 -11 13 -11 6 1 -4 8 -2 17 6 22 21 13 29 11 30 -8 0 -14 2
-15 6 -3 4 8 16 22 27 32 17 13 19 20 10 35 -6 10 -20 19 -30 20 -15 2 -14 1
4 -7z"/>
<path d="M16 2179 c-12 -23 -12 -28 -2 -20 12 11 29 51 21 51 -2 0 -10 -14
-19 -31z"/>
<path d="M2395 2180 c-40 -39 -57 -60 -50 -60 7 0 85 79 85 86 0 8 -5 4 -35
-26z"/>
<path d="M2176 2179 c3 -5 14 -9 25 -9 22 0 26 -25 4 -34 -8 -3 -15 -10 -15
-16 0 -6 10 -2 21 9 26 24 20 47 -15 53 -14 3 -23 1 -20 -3z"/>
<path d="M880 2163 c5 -2 10 -11 10 -18 0 -8 4 -17 10 -20 6 -4 7 2 1 16 -4
13 -13 24 -20 25 -6 1 -7 0 -1 -3z"/>
<path d="M919 2153 c-12 -16 -12 -17 2 -6 9 7 19 10 22 6 4 -3 7 -1 7 5 0 17
-16 15 -31 -5z"/>
<path d="M759 2143 c-13 -16 -12 -17 3 -4 10 7 25 11 33 7 9 -3 13 -2 10 4
-10 15 -31 12 -46 -7z"/>
<path d="M2497 2149 c7 -7 15 -10 18 -7 3 3 -2 9 -12 12 -14 6 -15 5 -6 -5z"/>
<path d="M1436 2130 c12 -5 26 -22 32 -39 6 -17 13 -31 16 -31 7 0 -12 51 -26
67 -6 7 -18 13 -27 12 -11 0 -10 -3 5 -9z"/>
<path d="M218 2123 c6 -2 12 -19 12 -36 0 -18 5 -39 11 -47 9 -12 10 -12 5 3
-3 10 -6 34 -6 53 0 26 -4 34 -17 33 -11 0 -13 -3 -5 -6z"/>
<path d="M707 2102 c6 -25 34 -27 40 -2 4 13 3 13 -6 0 -9 -13 -12 -12 -25 5
-15 20 -15 19 -9 -3z"/>
<path d="M943 2104 c-7 -7 -13 -22 -13 -33 0 -11 -8 -22 -18 -25 -28 -9 -66
-53 -53 -61 7 -3 10 -1 9 6 -2 7 14 24 35 37 20 14 37 33 37 43 0 9 5 19 12
21 6 2 9 9 7 15 -3 7 -8 7 -16 -3z"/>
<path d="M194 2099 c-3 -6 -2 -15 3 -20 5 -5 9 -1 9 11 0 23 -2 24 -12 9z"/>
<path d="M2535 2100 c-3 -5 -1 -10 4 -10 6 0 11 5 11 10 0 6 -2 10 -4 10 -3 0
-8 -4 -11 -10z"/>
<path d="M1340 2085 c0 -8 4 -15 10 -15 5 0 7 7 4 15 -4 8 -8 15 -10 15 -2 0
-4 -7 -4 -15z"/>
<path d="M1442 2060 c0 -14 2 -19 5 -12 2 6 2 18 0 25 -3 6 -5 1 -5 -13z"/>
<path d="M2161 2064 c0 -11 3 -14 6 -6 3 7 2 16 -1 19 -3 4 -6 -2 -5 -13z"/>
<path d="M1 2054 c0 -11 3 -14 6 -6 3 7 2 16 -1 19 -3 4 -6 -2 -5 -13z"/>
<path d="M74 2022 c-2 -37 -2 -37 8 -9 6 16 6 33 2 37 -5 5 -10 -7 -10 -28z"/>
<path d="M198 2035 c-24 -32 -23 -40 3 -14 11 11 19 24 17 29 -2 4 -11 -2 -20
-15z"/>
<path d="M1508 2048 c7 -7 12 -25 12 -40 0 -22 -5 -28 -22 -28 -13 0 -30 -5
-38 -11 -12 -9 -12 -10 3 -5 10 3 30 6 43 6 20 0 24 5 24 29 0 37 -9 61 -23
61 -7 0 -7 -4 1 -12z"/>
<path d="M1803 2053 c9 -2 23 -2 30 0 6 3 -1 5 -18 5 -16 0 -22 -2 -12 -5z"/>
<path d="M2287 2042 c-9 -10 -19 -46 -23 -84 -5 -54 -11 -69 -26 -74 -12 -4
-25 2 -38 18 -18 23 -18 23 1 26 10 2 19 7 19 11 0 5 -11 6 -25 3 -31 -5 -31
-9 0 -46 21 -26 27 -28 48 -19 21 10 25 20 31 79 4 40 14 76 23 86 9 10 14 18
11 18 -3 0 -12 -8 -21 -18z"/>
<path d="M1743 2043 c9 -2 23 -2 30 0 6 3 -1 5 -18 5 -16 0 -22 -2 -12 -5z"/>
<path d="M45 2010 c-10 -46 -31 -38 -26 10 2 13 0 13 -8 1 -11 -16 3 -51 19
-51 6 0 13 -1 16 -2 4 -2 8 14 10 35 4 45 -2 48 -11 7z"/>
<path d="M1860 2030 c0 -5 5 -10 11 -10 5 0 7 5 4 10 -3 6 -8 10 -11 10 -2 0
-4 -4 -4 -10z"/>
<path d="M1997 2013 c-5 -26 -11 -33 -31 -33 -17 0 -26 7 -29 20 -4 17 -4 16
-3 -2 2 -32 50 -38 66 -8 6 12 10 29 8 38 -2 10 -7 4 -11 -15z"/>
<path d="M2177 2023 c9 -24 43 -68 43 -56 0 6 -7 16 -15 23 -8 7 -15 18 -15
26 0 7 -4 16 -10 19 -6 4 -7 -1 -3 -12z"/>
<path d="M1460 2016 c14 -18 13 -19 -12 -14 -21 4 -33 -1 -50 -21 -19 -21 -19
-23 -2 -8 11 9 35 17 52 17 36 0 41 11 15 31 -17 13 -17 13 -3 -5z"/>
<path d="M246 1995 c-7 -29 -1 -44 26 -63 10 -7 18 -19 18 -27 0 -19 -42 -23
-58 -5 -11 13 -12 12 -3 -6 8 -16 17 -20 36 -16 38 7 42 29 12 60 -19 20 -24
34 -20 55 7 34 -3 36 -11 2z"/>
<path d="M1720 2016 c0 -2 7 -7 16 -10 8 -3 12 -2 9 4 -6 10 -25 14 -25 6z"/>
<path d="M202 1976 c7 -8 15 -12 17 -11 5 6 -10 25 -20 25 -5 0 -4 -6 3 -14z"/>
<path d="M1760 1981 c0 -5 5 -13 11 -17 6 -3 9 -19 5 -35 -3 -15 -2 -30 2 -33
14 -9 12 66 -3 80 -8 9 -15 11 -15 5z"/>
<path d="M809 1936 c-11 -19 -26 -37 -34 -40 -26 -10 -36 -41 -19 -62 14 -18
15 -18 5 3 -9 18 -5 27 29 63 22 23 40 45 40 50 0 5 8 11 18 13 16 4 16 5 -1
6 -10 1 -26 -13 -38 -33z"/>
<path d="M104 1948 c-5 -7 -3 -8 6 -3 7 4 16 2 21 -6 15 -23 10 -39 -11 -39
-14 0 -20 -7 -20 -21 0 -17 -3 -19 -14 -10 -19 16 -64 4 -77 -21 -10 -18 -8
-18 21 3 26 20 34 21 50 11 27 -16 30 -15 30 8 0 22 25 28 33 8 4 -10 6 -10 6
0 1 7 6 10 12 7 6 -4 1 11 -10 34 -22 42 -34 50 -47 29z"/>
<path d="M2000 1941 c0 -19 -5 -20 -71 -18 -78 3 -115 -11 -91 -35 11 -11 12
-10 7 5 -4 9 -3 17 1 18 5 0 28 2 51 4 24 2 45 0 48 -4 9 -15 58 2 62 20 6 21
18 25 26 9 3 -6 4 -5 3 2 -5 23 -36 22 -36 -1z"/>
<path d="M40 1930 c6 -11 13 -20 16 -20 2 0 0 9 -6 20 -6 11 -13 20 -16 20 -2
0 0 -9 6 -20z"/>
<path d="M60 1942 c0 -5 7 -9 15 -9 8 0 12 4 9 9 -3 4 -9 8 -15 8 -5 0 -9 -4
-9 -8z"/>
<path d="M202 1930 c0 -14 2 -19 5 -12 2 6 2 18 0 25 -3 6 -5 1 -5 -13z"/>
<path d="M1390 1941 c0 -6 4 -13 10 -16 6 -3 7 1 4 9 -7 18 -14 21 -14 7z"/>
<path d="M1457 1939 c7 -7 15 -10 18 -7 3 3 -2 9 -12 12 -14 6 -15 5 -6 -5z"/>
<path d="M1430 1913 c16 -7 12 -26 -5 -20 -9 4 -19 -5 -29 -23 -8 -17 -10 -30
-5 -30 5 0 11 11 15 24 3 14 12 23 22 22 20 -1 23 26 4 30 -7 1 -8 0 -2 -3z"/>
<path d="M2321 1906 c-7 -8 -11 -27 -9 -43 2 -20 -1 -27 -11 -25 -8 2 -25 -2
-38 -9 -20 -11 -26 -9 -46 8 -12 11 -33 23 -47 25 -14 3 -34 9 -45 12 -13 5
-12 2 5 -8 14 -8 34 -15 45 -16 11 0 28 -9 38 -20 18 -22 42 -26 52 -10 4 6
14 10 23 9 31 -3 41 1 45 19 3 11 5 9 6 -8 1 -18 -7 -29 -25 -37 -15 -7 -31
-10 -35 -7 -5 3 -19 -1 -31 -8 -13 -7 -30 -11 -38 -10 -11 2 -10 -1 3 -8 13
-9 21 -7 33 5 9 9 23 14 31 11 8 -3 28 1 45 10 27 14 30 20 25 49 -4 23 -1 38
9 46 8 6 14 15 14 20 0 14 -36 10 -49 -5z m33 -4 c-6 -4 -16 -16 -22 -27 -11
-20 -11 -20 -12 1 0 25 8 34 29 34 10 0 12 -3 5 -8z"/>
<path d="M1504 1901 c5 -8 -6 -17 -33 -28 -38 -15 -41 -19 -41 -55 0 -42 -12
-48 -42 -21 -17 15 -18 15 -13 0 8 -18 40 -32 55 -22 5 3 10 22 10 40 0 30 5
37 34 49 39 16 51 31 35 42 -8 4 -9 3 -5 -5z"/>
<path d="M1985 1891 c-3 -5 -1 -12 4 -15 5 -3 11 1 15 9 6 16 -9 21 -19 6z"/>
<path d="M2050 1878 c0 -9 5 -20 10 -23 13 -8 13 5 0 25 -8 13 -10 13 -10 -2z"/>
<path d="M1895 1870 c-7 -12 4 -59 22 -87 21 -31 13 -68 -13 -67 -14 0 -21 -5
-19 -15 1 -11 15 -17 48 -19 58 -4 77 -27 77 -95 0 -78 -38 -137 -89 -137 -10
0 -26 -10 -37 -22 -19 -23 -19 -23 2 -5 11 9 32 17 46 17 71 0 119 158 67 224
-17 21 -29 26 -67 27 -43 1 -45 1 -19 11 31 11 37 49 13 83 -7 11 -17 35 -21
53 -7 35 6 42 48 21 21 -10 21 -10 3 5 -22 18 -52 21 -61 6z"/>
<path d="M2021 1864 c0 -11 3 -14 6 -6 3 7 2 16 -1 19 -3 4 -6 -2 -5 -13z"/>
<path d="M1315 1860 c27 -12 43 -12 25 0 -8 5 -22 9 -30 9 -10 0 -8 -3 5 -9z"/>
<path d="M1826 1835 c25 -61 1 -71 -72 -30 -25 14 -43 21 -39 15 9 -15 81 -50
104 -50 10 0 22 7 25 16 6 14 -17 84 -28 84 -3 0 2 -16 10 -35z"/>
<path d="M1865 1836 c24 -56 19 -73 -25 -101 -52 -33 -52 -40 0 -12 22 12 43
32 46 44 6 23 -11 89 -26 98 -5 3 -3 -10 5 -29z"/>
<path d="M1275 1840 c-3 -11 -20 -24 -38 -29 -25 -7 -27 -9 -9 -10 22 -1 62
30 62 49 0 17 -8 11 -15 -10z"/>
<path d="M1982 1811 c-2 -37 -4 -42 -17 -31 -9 8 -15 9 -15 2 0 -16 20 -26 32
-14 5 5 8 27 5 48 l-4 39 -1 -44z"/>
<path d="M787 1818 c2 -5 10 -8 18 -8 8 0 16 3 18 8 3 4 -5 7 -18 7 -13 0 -21
-3 -18 -7z"/>
<path d="M1123 1823 c-28 -10 -9 -84 22 -83 5 0 2 7 -8 15 -11 8 -17 23 -15
37 3 20 7 23 43 20 22 -2 38 -2 35 1 -9 7 -64 15 -77 10z"/>
<path d="M1681 1799 c-9 -26 -13 -29 -30 -20 -11 6 -23 11 -28 11 -4 -1 5 -8
21 -16 31 -17 40 -12 50 29 9 36 1 34 -13 -4z"/>
<path d="M2023 1824 c10 -3 17 -15 17 -31 0 -20 -4 -24 -17 -18 -15 5 -16 4
-5 -6 17 -18 35 1 30 32 -2 15 -10 25 -23 26 -16 1 -16 1 -2 -3z"/>
<path d="M2060 1821 c0 -4 14 -7 30 -5 27 3 30 1 30 -22 0 -21 -4 -25 -17 -19
-14 5 -15 3 -6 -6 9 -9 18 -6 40 11 15 13 21 20 11 17 -10 -4 -18 1 -21 14 -4
14 -14 19 -36 19 -17 0 -31 -4 -31 -9z"/>
<path d="M2153 1824 c20 -6 23 -34 5 -53 -11 -10 -9 -11 5 -5 26 9 19 58 -8
61 -16 1 -16 1 -2 -3z"/>
<path d="M1290 1795 c0 -8 -11 -17 -25 -20 -14 -3 -37 -7 -51 -10 -25 -6 -29
-27 -6 -31 7 -1 8 0 2 3 -18 9 0 23 30 23 17 0 40 10 56 25 20 19 23 25 10 25
-9 0 -16 -7 -16 -15z"/>
<path d="M2 1770 c0 -14 2 -19 5 -12 2 6 2 18 0 25 -3 6 -5 1 -5 -13z"/>
<path d="M372 1760 c-5 -14 -13 -36 -17 -50 -7 -24 -6 -24 8 -6 8 12 20 17 31
13 9 -4 16 -2 16 3 0 6 -9 10 -20 10 -14 0 -18 5 -13 16 5 13 7 13 14 2 5 -7
9 -8 9 -3 0 6 -4 17 -10 25 -7 12 -11 10 -18 -10z"/>
<path d="M796 1753 c-6 -14 -5 -15 5 -6 7 7 10 15 7 18 -3 3 -9 -2 -12 -12z"/>
<path d="M1581 1754 c-35 -16 -69 -44 -53 -44 5 0 15 7 22 15 7 8 20 15 30 15
10 0 23 7 30 15 15 18 15 18 -29 -1z"/>
<path d="M435 1749 c-4 -6 -5 -12 -2 -15 2 -3 7 2 10 11 7 17 1 20 -8 4z"/>
<path d="M460 1745 c-14 -17 -4 -55 16 -55 8 0 14 -5 14 -11 0 -6 -7 -8 -17
-4 -15 5 -16 4 -5 -6 14 -15 28 -4 34 26 2 12 13 21 26 23 12 2 22 10 22 17 0
20 -20 29 -33 16 -9 -9 -8 -11 6 -6 10 4 17 2 17 -4 0 -15 -37 -14 -43 2 -3 6
-6 0 -6 -15 -1 -16 -6 -28 -11 -28 -17 0 -23 29 -10 45 7 8 10 15 7 15 -2 0
-10 -7 -17 -15z"/>
<path d="M565 1750 c-3 -6 1 -7 9 -4 13 5 16 -1 16 -27 1 -28 2 -31 11 -17 17
30 -18 77 -36 48z"/>
<path d="M615 1750 c-3 -6 1 -7 9 -4 18 7 21 14 7 14 -6 0 -13 -4 -16 -10z"/>
<path d="M664 1749 c-5 -8 -3 -9 6 -4 7 4 16 2 22 -6 8 -12 9 -12 6 0 -6 20
-24 25 -34 10z"/>
<path d="M735 1751 c-3 -7 0 -8 9 -5 23 9 19 -9 -4 -24 -24 -15 -18 -32 11
-32 17 0 20 6 17 32 -3 32 -21 48 -33 29z m25 -41 c0 -5 -7 -10 -16 -10 -8 0
-12 5 -9 10 3 6 10 10 16 10 5 0 9 -4 9 -10z"/>
<path d="M1176 1716 c26 -19 12 -31 -24 -18 -36 12 -62 -1 -55 -28 8 -30 -19
-34 -61 -10 -21 11 -35 16 -31 11 3 -6 21 -18 40 -27 29 -13 38 -14 51 -3 8 7
13 21 10 32 -4 18 -1 19 45 13 44 -6 49 -5 49 13 0 10 -7 22 -16 25 -26 10
-29 7 -8 -8z"/>
<path d="M525 1700 c-16 -7 -17 -9 -3 -9 9 -1 20 4 23 9 7 11 7 11 -20 0z"/>
<path d="M626 1701 c-14 -5 -16 -10 -8 -15 7 -4 9 -12 6 -18 -5 -7 -2 -8 5 -4
7 5 10 11 7 14 -3 3 -1 11 5 19 13 15 12 15 -15 4z"/>
<path d="M675 1700 c-16 -7 -17 -9 -3 -9 9 -1 20 4 23 9 7 11 7 11 -20 0z"/>
<path d="M1695 1700 c-3 -5 0 -7 9 -4 9 3 20 -3 28 -15 7 -12 19 -21 26 -21 8
0 0 11 -16 25 -33 28 -38 29 -47 15z"/>
<path d="M1490 1685 c-6 -8 -10 -19 -8 -24 1 -6 8 1 15 14 13 28 11 31 -7 10z"/>
<path d="M956 1678 c-3 -7 -7 -25 -10 -40 -4 -19 -16 -30 -40 -38 -19 -6 -39
-17 -45 -24 -6 -7 10 -3 35 9 51 24 64 39 64 72 0 12 8 24 18 26 16 4 16 5 -1
6 -10 0 -19 -5 -21 -11z"/>
<path d="M1293 1684 c9 -3 17 -9 17 -14 0 -11 -49 -19 -56 -9 -9 15 -24 10
-24 -7 0 -14 -7 -16 -40 -11 -33 4 -40 2 -39 -11 0 -10 3 -12 5 -6 2 6 19 8
36 6 22 -3 35 0 44 12 7 10 15 13 18 7 9 -14 61 3 61 20 0 7 -9 15 -20 16 -16
1 -16 1 -2 -3z"/>
<path d="M1811 1686 c2 -2 36 -16 74 -31 87 -34 92 -38 76 -69 -8 -13 -10 -29
-7 -35 4 -6 0 -14 -8 -17 -9 -3 -16 -14 -16 -23 0 -19 -58 -45 -100 -46 -19 0
-26 -6 -28 -26 -3 -22 -7 -25 -29 -21 -22 4 -24 2 -19 -15 4 -14 1 -23 -9 -27
-9 -3 -15 -18 -15 -34 0 -16 -9 -37 -20 -47 -11 -10 -20 -26 -20 -35 0 -28
-29 -77 -49 -83 -16 -4 -36 -55 -25 -66 2 -2 7 10 10 27 4 18 13 32 20 32 16
0 54 57 54 81 0 9 9 28 20 42 11 14 20 36 20 50 0 14 7 28 16 31 10 4 14 13
10 22 -4 11 0 14 17 12 18 -2 23 2 25 25 3 23 7 28 23 24 25 -7 109 29 109 46
0 7 5 18 12 25 6 6 13 20 14 29 2 10 6 30 9 44 6 24 2 27 -74 57 -74 30 -101
38 -90 28z"/>
<path d="M616 1635 c-3 -8 -1 -15 4 -15 6 0 10 7 10 15 0 8 -2 15 -4 15 -2 0
-6 -7 -10 -15z"/>
<path d="M1871 1631 c13 -11 26 -17 28 -15 5 5 -30 33 -43 34 -4 0 2 -9 15
-19z"/>
<path d="M994 1613 c-17 -53 -24 -63 -49 -63 -31 0 -65 -16 -65 -31 0 -6 7 -3
16 5 8 9 26 16 39 16 40 0 54 11 61 46 7 40 16 43 38 9 9 -13 25 -29 37 -35
11 -6 3 7 -19 29 -45 46 -50 48 -58 24z"/>
<path d="M610 1595 c0 -9 -12 -27 -27 -41 l-28 -25 33 22 c17 13 32 31 32 41
0 10 -2 18 -5 18 -3 0 -5 -7 -5 -15z"/>
<path d="M1161 1594 c-1 -14 -12 -25 -33 -32 l-33 -11 35 6 c43 7 43 6 37 35
-4 21 -4 21 -6 2z"/>
<path d="M1680 1595 c0 -19 -37 -38 -61 -32 -10 3 -17 1 -13 -4 10 -17 45 -9
70 16 31 31 42 31 54 3 5 -14 9 -17 9 -7 1 8 -4 20 -11 27 -17 17 -48 15 -48
-3z"/>
<path d="M1895 1576 c-19 -35 -21 -36 -61 -30 -25 3 -51 1 -64 -6 -18 -10 -24
-9 -31 1 -7 11 -9 10 -9 -5 0 -15 4 -17 23 -10 12 4 48 7 80 6 42 -1 57 2 57
13 0 7 7 21 16 29 8 9 14 21 12 27 -2 6 -13 -5 -23 -25z"/>
<path d="M2350 1556 c-19 -8 -39 -20 -44 -28 -13 -21 0 -48 21 -47 17 1 17 2
1 6 -10 2 -18 13 -18 24 0 21 37 26 69 10 12 -7 37 -4 81 10 48 15 66 17 74 8
8 -9 7 -10 -6 -6 -10 3 -20 2 -23 -3 -3 -5 -12 -7 -20 -3 -8 3 -15 0 -15 -7 0
-9 10 -11 31 -6 17 3 37 6 44 6 15 0 16 29 1 32 -6 1 -29 2 -51 3 -22 1 -56 5
-75 8 -19 3 -51 0 -70 -7z m89 -3 c22 -6 22 -6 -9 -19 -41 -17 -39 -18 -33 6
6 22 7 23 42 13z"/>
<path d="M785 1539 c-22 -10 -33 -18 -25 -18 8 0 31 8 50 19 45 25 27 24 -25
-1z"/>
<path d="M523 1518 c-8 -28 -14 -33 -40 -33 -20 0 -40 -8 -53 -22 -11 -13 -16
-23 -11 -23 6 0 15 9 21 20 8 15 17 18 38 14 18 -4 32 -1 38 8 17 23 34 68 25
68 -4 0 -12 -15 -18 -32z"/>
<path d="M1530 1534 c-14 -7 -33 -14 -42 -14 -10 0 -18 -7 -18 -15 0 -8 7 -15
15 -15 26 0 16 -14 -30 -42 -37 -22 -45 -32 -44 -55 l2 -28 4 28 c3 21 17 34
55 56 48 28 49 29 29 43 -20 14 -20 15 19 27 21 6 42 16 45 21 8 13 -5 11 -35
-6z"/>
<path d="M1185 1477 c-70 -115 -78 -134 -67 -141 4 -3 8 4 9 14 1 10 20 48 44
85 23 36 40 68 38 70 -3 2 -13 -11 -24 -28z"/>
<path d="M823 1483 c9 -2 23 -2 30 0 6 3 -1 5 -18 5 -16 0 -22 -2 -12 -5z"/>
<path d="M962 1455 c0 -16 2 -22 5 -12 2 9 2 23 0 30 -3 6 -5 -1 -5 -18z"/>
<path d="M1337 1459 c3 -12 1 -24 -5 -28 -20 -12 -82 -111 -81 -128 1 -15 2
-15 7 2 9 27 64 108 79 118 15 9 17 43 4 51 -5 4 -7 -3 -4 -15z"/>
<path d="M2343 1454 c2 -15 -4 -19 -26 -17 -21 1 -31 -4 -39 -23 -6 -13 -14
-24 -17 -25 -58 -7 -89 -19 -95 -36 -6 -16 -5 -16 11 -1 10 9 33 19 51 21 38
6 62 23 62 43 0 10 7 13 23 9 28 -7 57 19 40 36 -8 8 -11 6 -10 -7z"/>
<path d="M2428 1463 c7 -3 16 -2 19 1 4 3 -2 6 -13 5 -11 0 -14 -3 -6 -6z"/>
<path d="M361 1390 c-13 -28 -22 -52 -20 -54 2 -2 16 21 30 50 15 30 24 54 20
54 -3 0 -17 -23 -30 -50z"/>
<path d="M890 1431 c0 -10 39 -46 43 -40 2 2 -7 14 -20 26 -13 12 -23 19 -23
14z"/>
<path d="M1597 1414 c-16 -13 -39 -24 -53 -24 -20 0 -24 -5 -23 -27 2 -24 2
-25 6 -5 3 13 12 22 22 22 10 0 30 9 45 21 14 11 30 17 36 14 5 -3 10 -2 10 4
0 20 -16 18 -43 -5z"/>
<path d="M1507 1405 c-15 -14 -24 -25 -19 -25 5 0 19 11 32 25 30 32 23 32
-13 0z"/>
<path d="M998 1413 c6 -2 18 -2 25 0 6 3 1 5 -13 5 -14 0 -19 -2 -12 -5z"/>
<path d="M1073 1413 c34 -5 35 -30 2 -39 -18 -4 -25 -13 -25 -30 0 -17 -6 -24
-20 -24 -12 0 -20 -7 -20 -17 0 -11 3 -14 8 -7 4 6 15 13 25 17 9 3 17 15 17
25 0 10 11 24 25 30 15 7 25 20 25 32 0 16 -6 20 -32 19 -31 -2 -31 -2 -5 -6z"/>
<path d="M1850 1397 c0 -8 -11 -19 -25 -25 -14 -6 -25 -18 -25 -26 0 -9 -9
-20 -21 -26 -15 -9 -20 -20 -19 -48 3 -57 2 -59 -30 -71 -16 -5 -30 -17 -30
-25 0 -8 -5 -16 -12 -18 -14 -5 -1 -28 15 -27 9 0 9 2 1 5 -14 6 5 54 22 54
30 0 48 28 46 73 -2 38 0 46 18 52 11 3 20 15 20 25 0 13 9 22 25 26 16 4 25
13 25 25 0 10 -2 19 -5 19 -3 0 -5 -6 -5 -13z"/>
<path d="M2488 1403 c7 -3 16 -2 19 1 4 3 -2 6 -13 5 -11 0 -14 -3 -6 -6z"/>
<path d="M1445 1370 c-3 -6 1 -7 9 -4 18 7 21 14 7 14 -6 0 -13 -4 -16 -10z"/>
<path d="M954 1339 c-10 -12 -32 -28 -47 -36 -16 -8 -27 -19 -24 -26 4 -14 67
-28 67 -16 0 5 -13 9 -30 9 -16 0 -30 5 -30 10 0 6 4 10 9 10 5 0 28 16 51 35
23 19 38 35 32 35 -5 0 -17 -9 -28 -21z"/>
<path d="M1180 1350 c-9 -6 -10 -10 -3 -10 6 0 15 5 18 10 8 12 4 12 -15 0z"/>
<path d="M2070 1330 c-22 -31 -20 -34 15 -30 17 2 18 0 5 -17 -14 -16 -14 -17
3 -4 21 16 22 31 3 31 -14 0 -16 23 -3 36 3 4 18 -1 33 -10 14 -10 28 -15 31
-13 4 5 -49 37 -61 37 -2 0 -14 -13 -26 -30z"/>
<path d="M1500 1315 c0 -8 4 -15 8 -15 5 0 9 7 9 15 0 8 -4 15 -9 15 -4 0 -8
-7 -8 -15z"/>
<path d="M2358 1323 c7 -3 16 -2 19 1 4 3 -2 6 -13 5 -11 0 -14 -3 -6 -6z"/>
<path d="M332 1300 c0 -14 2 -19 5 -12 2 6 2 18 0 25 -3 6 -5 1 -5 -13z"/>
<path d="M389 1293 c-11 -15 -11 -16 1 -5 24 21 29 14 25 -33 -4 -44 7 -66 21
-44 3 6 1 15 -5 19 -8 5 -10 19 -6 44 6 28 4 36 -8 36 -8 0 -21 -8 -28 -17z"/>
<path d="M1598 1290 c17 -7 22 -17 22 -44 0 -19 -5 -37 -10 -39 -6 -3 -5 -4 2
-3 17 3 23 64 7 82 -6 8 -19 14 -28 13 -11 0 -9 -3 7 -9z"/>
<path d="M1265 1252 c0 -26 -2 -27 -49 -24 -48 4 -49 3 -44 -22 4 -17 1 -26
-8 -26 -7 0 -19 -13 -27 -29 -12 -25 -12 -29 -1 -24 8 3 14 14 14 24 0 13 7
19 21 19 18 0 20 4 15 26 -7 26 -6 27 30 21 22 -4 43 -2 51 5 14 12 18 44 5
52 -4 2 -8 -8 -7 -22z"/>
<path d="M2044 1252 c-24 -19 -37 -49 -26 -56 4 -3 9 4 9 15 1 11 12 29 25 39
13 11 21 19 18 19 -3 1 -14 -7 -26 -17z"/>
<path d="M2110 1260 c-11 -8 -8 -9 13 -4 17 4 27 2 27 -5 0 -6 18 -31 40 -55
43 -47 47 -61 25 -90 -8 -11 -13 -28 -10 -37 7 -21 -61 -80 -81 -72 -10 4 -14
-4 -15 -28 -1 -19 0 -38 1 -44 12 -46 11 -52 -15 -63 -29 -13 -45 -9 -45 14 0
8 -11 19 -25 24 -14 6 -37 15 -52 22 -34 14 -103 19 -79 6 9 -5 22 -8 28 -6
23 5 108 -33 119 -54 6 -11 9 -21 7 -23 -7 -7 -261 -106 -264 -102 -9 8 29 47
46 47 16 0 17 4 10 31 -11 38 -24 54 -15 19 10 -40 -56 -105 -115 -114 -25 -4
-52 -11 -60 -16 -11 -7 -5 -8 18 -4 25 5 32 3 32 -9 0 -9 -4 -19 -10 -22 -5
-3 -10 -13 -10 -22 0 -13 3 -13 15 -3 21 17 31 5 18 -23 -18 -37 -23 -58 -13
-52 6 3 10 13 10 21 0 8 6 23 13 35 10 17 9 22 -3 32 -8 7 -14 22 -12 33 4 26
41 34 152 33 74 0 74 0 42 -14 -18 -8 -35 -21 -38 -30 -4 -10 -19 -15 -44 -15
-35 0 -67 -19 -54 -33 3 -3 7 -22 8 -41 l1 -36 -50 0 c-43 -1 -53 -4 -69 -28
l-19 -27 25 23 c25 23 31 23 197 21 122 -1 175 2 185 11 9 6 21 8 28 4 7 -4
10 -4 6 1 -16 17 35 38 91 38 49 -1 52 0 21 7 -19 4 -28 8 -19 9 9 0 41 11 70
22 124 49 144 66 148 129 1 15 8 20 29 20 15 0 33 5 40 12 15 15 16 38 2 38
-6 0 -9 -5 -8 -12 2 -7 -10 -14 -26 -17 -28 -6 -39 -17 -50 -53 -4 -14 -16
-18 -56 -18 l-50 0 0 78 c0 45 4 72 9 64 4 -7 6 -24 4 -36 -3 -13 0 -27 7 -31
19 -12 49 25 52 64 3 38 18 44 62 26 13 -6 17 -5 13 2 -4 6 3 13 16 17 36 9
65 7 70 -6 3 -8 6 -6 6 5 1 10 9 17 22 17 17 0 19 -4 13 -22 -7 -23 -36 -53
-57 -61 -7 -2 -9 -8 -5 -12 4 -4 19 0 33 9 14 9 25 13 26 9 1 -18 18 35 18 60
l1 28 -57 -7 c-32 -4 -68 -11 -81 -15 -13 -5 -35 -6 -49 -3 -30 8 -43 -7 -43
-52 0 -29 -15 -54 -32 -54 -4 0 -8 9 -8 20 0 11 5 20 10 20 17 0 -23 37 -49
45 -23 7 -24 6 -19 -53 3 -46 1 -59 -9 -55 -7 3 -13 8 -13 12 0 3 -7 14 -14
24 -18 24 -66 13 -66 -14 0 -23 -13 -25 -30 -4 -7 8 -17 15 -23 15 -6 0 -3 -6
8 -13 13 -10 16 -21 12 -40 -7 -24 -5 -25 21 -18 23 7 27 13 25 38 -4 52 46
53 62 2 4 -12 14 -19 23 -17 14 3 16 13 13 62 -2 41 0 56 8 52 6 -4 11 -38 11
-82 l0 -74 -105 0 c-64 0 -113 5 -124 12 -15 9 -28 9 -58 -1 -21 -7 -63 -11
-93 -9 l-54 3 91 36 c60 24 93 33 96 25 3 -7 10 -6 22 4 17 13 18 13 10 0 -5
-8 5 0 22 18 17 17 37 32 45 32 8 0 23 7 34 15 11 9 13 13 4 10 -10 -4 -19 4
-25 22 -12 32 -8 86 5 78 5 -3 11 -1 15 5 3 5 15 10 26 10 11 0 18 4 15 9 -3
4 5 18 18 30 15 15 22 30 19 45 -3 13 0 27 6 30 16 10 14 41 -4 56 -8 7 -13
16 -10 20 3 4 -4 10 -14 13 -10 2 -24 18 -32 36 -14 32 -33 38 -59 21z m30
-475 c0 -8 -7 -15 -15 -15 -26 0 -18 20 13 29 1 1 2 -6 2 -14z m-130 -55 c-14
-11 -31 -20 -37 -20 -7 0 -19 -13 -28 -29 -8 -16 -20 -31 -27 -34 -9 -4 -7 -6
3 -6 9 -1 22 11 28 27 22 52 63 62 249 62 l167 0 -25 -20 c-14 -10 -36 -24
-50 -31 -14 -6 -36 -17 -50 -24 -14 -7 -50 -20 -80 -30 -30 -10 -72 -29 -92
-42 -33 -20 -50 -23 -144 -23 l-107 0 27 26 c14 15 26 31 26 35 0 5 8 9 18 10
9 0 12 3 5 5 -6 3 -30 -13 -53 -36 -47 -47 -64 -44 -56 9 3 20 5 39 6 44 0 4
16 7 35 7 21 0 37 6 43 16 12 22 111 73 142 73 l25 1 -25 -20z"/>
<path d="M2020 685 c0 -8 2 -15 4 -15 2 0 6 7 10 15 3 8 1 15 -4 15 -6 0 -10
-7 -10 -15z"/>
<path d="M1096 1246 c3 -8 -3 -16 -15 -19 -12 -3 -21 -11 -21 -19 0 -8 3 -9 8
-2 4 6 15 13 25 17 18 7 24 37 7 37 -5 0 -7 -6 -4 -14z"/>
<path d="M998 1238 c12 -6 22 -15 22 -20 0 -15 -52 -29 -82 -23 -21 5 -40 -1
-77 -23 -27 -17 -62 -32 -77 -35 l-29 -4 28 -2 c15 0 46 11 70 26 31 20 55 27
95 28 36 1 58 6 70 19 16 16 16 18 -2 32 -11 8 -25 14 -30 13 -6 0 -1 -5 12
-11z"/>
<path d="M2060 1220 c-14 -11 -20 -20 -14 -20 6 0 19 9 29 20 23 25 17 25 -15
0z"/>
<path d="M1530 1199 c-14 -11 -19 -18 -12 -14 57 30 65 35 52 35 -8 0 -26 -10
-40 -21z"/>
<path d="M2248 1193 c7 -3 16 -2 19 1 4 3 -2 6 -13 5 -11 0 -14 -3 -6 -6z"/>
<path d="M2523 1193 c9 -2 23 -2 30 0 6 3 -1 5 -18 5 -16 0 -22 -2 -12 -5z"/>
<path d="M1050 1180 c0 -5 -9 -10 -19 -10 -11 0 -22 -4 -25 -9 -9 -14 42 0 55
15 8 10 8 14 0 14 -6 0 -11 -4 -11 -10z"/>
<path d="M1433 1174 c-3 -8 -1 -20 5 -26 8 -8 9 -5 6 10 -4 14 0 22 13 25 17
4 17 5 0 6 -10 0 -20 -6 -24 -15z"/>
<path d="M350 1161 c0 -5 9 -19 21 -32 l20 -24 -15 26 c-9 14 -13 29 -9 32 3
4 1 7 -5 7 -7 0 -12 -4 -12 -9z"/>
<path d="M405 1146 c42 -37 71 -34 44 4 -9 13 -10 12 -5 -2 7 -23 1 -23 -37 3
l-32 21 30 -26z"/>
<path d="M955 1145 c-16 -7 -50 -19 -75 -25 -25 -7 -51 -14 -57 -16 -7 -2 -12
-16 -12 -31 l2 -28 4 28 c3 18 10 27 23 27 11 0 29 4 42 9 13 5 34 12 48 15
14 3 34 12 45 20 24 19 19 19 -20 1z"/>
<path d="M1460 1133 c0 -6 7 -13 15 -17 29 -11 16 -28 -19 -24 -19 2 -32 0
-30 -4 8 -12 62 -10 70 3 3 6 -3 21 -15 32 -11 12 -21 16 -21 10z"/>
<path d="M1045 1109 c-16 -10 -25 -19 -20 -19 6 0 19 6 30 14 11 7 29 16 40
19 l20 5 -20 0 c-11 0 -33 -8 -50 -19z"/>
<path d="M1210 1105 c-14 -8 -20 -14 -14 -15 5 0 19 7 30 15 24 18 16 19 -16
0z"/>
<path d="M1340 1113 c0 -5 12 -19 26 -33 l27 -25 -24 -6 c-23 -7 -23 -7 -2 -8
29 -1 38 15 19 35 -22 21 -20 26 7 19 20 -5 20 -5 -3 9 -27 17 -50 20 -50 9z"/>
<path d="M1514 1108 c-4 -6 4 -20 19 -33 15 -11 27 -24 27 -28 0 -11 -38 -8
-43 3 -3 6 -4 5 -3 -2 4 -19 50 -16 54 3 1 9 -8 20 -23 27 -30 14 -34 37 -5
29 11 -3 20 -1 20 4 0 13 -38 11 -46 -3z"/>
<path d="M1721 1073 c2 -47 2 -47 9 -13 4 19 8 26 9 16 0 -11 3 -17 6 -14 9 8
-6 58 -16 58 -5 0 -8 -21 -8 -47z"/>
<path d="M1776 1104 c-4 -9 -4 -19 -1 -22 2 -3 7 3 11 12 4 9 4 19 1 22 -2 3
-7 -3 -11 -12z"/>
<path d="M729 1095 c-8 -9 -31 -24 -50 -34 -21 -11 -34 -26 -35 -40 -1 -17 -1
-18 3 -2 2 11 19 26 37 35 17 8 40 24 51 36 21 23 17 27 -6 5z"/>
<path d="M1680 1076 c0 -19 3 -37 8 -40 4 -2 6 13 4 35 -5 48 -12 51 -12 5z"/>
<path d="M1880 1076 c0 -19 3 -37 8 -40 4 -2 6 13 4 35 -5 48 -12 51 -12 5z"/>
<path d="M410 1080 c6 -11 13 -20 16 -20 2 0 0 9 -6 20 -6 11 -13 20 -16 20
-2 0 0 -9 6 -20z"/>
<path d="M960 1091 c0 -4 11 -6 25 -3 14 2 25 6 25 8 0 2 -11 4 -25 4 -14 0
-25 -4 -25 -9z"/>
<path d="M1073 1054 c-54 -19 -95 -29 -98 -24 -3 6 -12 10 -18 10 -7 0 -6 -4
3 -10 12 -7 10 -11 -10 -18 -153 -57 -141 -54 -156 -35 -12 17 -13 17 -8 -2 4
-16 -2 -23 -31 -34 -20 -7 -34 -15 -32 -18 3 -2 15 1 27 7 34 18 49 -3 23 -32
-34 -38 -42 -60 -32 -86 10 -26 4 -62 -11 -62 -4 0 -6 -9 -3 -21 5 -18 8 -15
19 17 9 26 11 48 5 65 -9 27 -1 49 31 83 10 11 16 27 13 36 -4 12 22 25 123
59 70 25 133 47 141 49 11 4 13 -2 8 -24 l-6 -29 14 31 c9 21 27 37 55 48 22
9 40 18 40 21 0 3 -1 5 -2 4 -2 0 -44 -16 -95 -35z"/>
<path d="M1280 1080 c-23 -7 -23 -8 -3 -9 12 -1 25 4 28 9 3 6 5 10 3 9 -2 -1
-14 -5 -28 -9z"/>
<path d="M1630 1060 c0 -16 2 -30 4 -30 2 0 6 14 8 30 3 17 1 30 -4 30 -4 0
-8 -13 -8 -30z"/>
<path d="M1850 1060 c0 -16 2 -30 4 -30 2 0 6 14 8 30 3 17 1 30 -4 30 -4 0
-8 -13 -8 -30z"/>
<path d="M341 1066 c-9 -11 -9 -16 0 -22 7 -4 9 -3 5 4 -3 6 2 15 11 21 10 6
13 11 7 11 -6 0 -17 -6 -23 -14z"/>
<path d="M397 1059 c12 -12 24 -21 27 -18 2 2 -8 13 -22 23 l-27 19 22 -24z"/>
<path d="M750 1040 c-15 -20 -17 -28 -7 -24 8 3 17 15 20 26 4 13 10 17 18 12
8 -4 10 -3 5 4 -10 17 -12 16 -36 -18z"/>
<path d="M2488 1063 c6 -2 18 -2 25 0 6 3 1 5 -13 5 -14 0 -19 -2 -12 -5z"/>
<path d="M1252 1048 c2 -9 -7 -12 -27 -11 -29 2 -29 2 -6 -8 19 -7 28 -6 39 4
10 11 11 17 3 22 -7 4 -10 1 -9 -7z"/>
<path d="M1581 1044 c0 -11 3 -14 6 -6 3 7 2 16 -1 19 -3 4 -6 -2 -5 -13z"/>
<path d="M1757 1053 c-4 -3 -7 -11 -7 -17 0 -6 5 -5 12 2 6 6 9 14 7 17 -3 3
-9 2 -12 -2z"/>
<path d="M1801 1044 c0 -11 3 -14 6 -6 3 7 2 16 -1 19 -3 4 -6 -2 -5 -13z"/>
<path d="M1605 1040 c-3 -5 -1 -10 4 -10 6 0 11 5 11 10 0 6 -2 10 -4 10 -3 0
-8 -4 -11 -10z"/>
<path d="M1825 1040 c-3 -5 -1 -10 4 -10 6 0 11 5 11 10 0 6 -2 10 -4 10 -3 0
-8 -4 -11 -10z"/>
<path d="M2373 993 c-89 -48 -117 -73 -82 -73 6 0 7 4 4 10 -3 5 35 30 84 54
49 25 92 50 96 56 3 5 5 9 3 9 -2 -1 -49 -26 -105 -56z"/>
<path d="M1105 1027 c32 -22 54 -27 61 -15 4 6 3 8 -3 5 -5 -3 -22 1 -37 9
-35 18 -47 18 -21 1z"/>
<path d="M45 1019 c-38 -7 -37 -7 14 -6 51 2 55 0 61 -23 10 -37 -6 -60 -40
-60 -26 0 -30 4 -30 29 0 18 -6 31 -16 35 -13 5 -14 3 -6 -6 5 -7 12 -24 14
-38 2 -20 10 -26 35 -28 51 -5 75 51 40 96 -10 13 -12 13 -72 1z"/>
<path d="M356 1012 c-3 -6 -1 -14 5 -17 14 -9 20 -2 10 14 -6 8 -11 9 -15 3z"/>
<path d="M395 1010 c-3 -6 1 -7 9 -4 18 7 21 14 7 14 -6 0 -13 -4 -16 -10z"/>
<path d="M1465 1000 c-10 -11 -28 -21 -39 -21 -18 -1 -19 -2 -3 -6 11 -3 29 4
40 15 12 11 31 22 42 25 19 4 19 5 -1 6 -11 0 -29 -8 -39 -19z"/>
<path d="M1568 1003 c-20 -3 -28 -10 -28 -24 0 -16 -7 -19 -39 -19 -22 0 -43
-5 -46 -11 -4 -6 -13 -8 -20 -5 -22 8 -25 -6 -7 -36 17 -29 17 -30 -11 -50
-21 -15 -25 -23 -17 -33 8 -10 8 -19 -1 -33 -10 -16 -10 -23 0 -36 16 -19 8
-20 -21 -5 -17 9 -19 17 -14 51 4 22 13 49 21 60 17 25 9 48 -16 48 -26 0 -24
24 4 45 22 17 22 17 -3 2 -31 -18 -40 -57 -12 -57 28 0 33 -10 17 -34 -8 -11
-17 -40 -21 -63 -6 -37 -4 -43 19 -58 30 -19 55 -12 36 11 -9 12 -9 20 2 41
12 22 12 27 0 31 -9 3 -5 11 15 28 26 20 28 25 16 44 -7 12 -12 23 -10 25 17
14 53 25 82 25 29 0 36 4 36 20 0 13 7 20 19 20 11 0 23 5 26 10 3 6 5 9 3 9
-2 -1 -15 -4 -30 -6z"/>
<path d="M2208 1003 c6 -2 18 -2 25 0 6 3 1 5 -13 5 -14 0 -19 -2 -12 -5z"/>
<path d="M460 970 c6 -11 13 -20 16 -20 2 0 0 9 -6 20 -6 11 -13 20 -16 20 -2
0 0 -9 6 -20z"/>
<path d="M746 975 c-11 -8 -15 -15 -9 -15 6 0 16 7 23 15 16 19 11 19 -14 0z"/>
<path d="M898 939 c-21 -21 -38 -47 -37 -57 0 -15 1 -15 7 -1 11 25 70 89 83
89 7 0 9 -9 6 -21 -4 -16 -3 -19 5 -11 13 13 3 42 -14 42 -7 -1 -30 -19 -50
-41z"/>
<path d="M1790 969 c0 -5 5 -7 10 -4 6 3 10 8 10 11 0 2 -4 4 -10 4 -5 0 -10
-5 -10 -11z"/>
<path d="M686 963 c6 -4 14 -15 17 -23 5 -11 6 -9 4 4 -1 11 -9 21 -17 23 -10
3 -11 2 -4 -4z"/>
<path d="M1677 962 c6 -4 13 -25 16 -47 l4 -40 1 42 c2 30 7 43 20 46 9 3 1 5
-18 6 -19 0 -30 -3 -23 -7z"/>
<path d="M328 953 c6 -2 18 -2 25 0 6 3 1 5 -13 5 -14 0 -19 -2 -12 -5z"/>
<path d="M400 946 c14 -8 39 -15 55 -14 29 0 29 0 -5 8 -19 4 -44 10 -55 14
-13 5 -11 2 5 -8z"/>
<path d="M275 930 c-3 -6 1 -7 9 -4 18 7 21 14 7 14 -6 0 -13 -4 -16 -10z"/>
<path d="M1554 910 c1 -16 7 -25 19 -26 11 -1 12 0 3 3 -8 2 -17 14 -19 26 -3
18 -4 18 -3 -3z"/>
<path d="M1607 933 c-10 -10 -8 -41 3 -48 6 -3 7 1 4 9 -4 11 0 16 15 16 23 0
28 14 9 26 -7 4 -8 3 -4 -4 4 -7 1 -12 -9 -12 -9 0 -13 5 -10 10 7 11 2 13 -8
3z"/>
<path d="M1732 913 c2 -18 9 -28 21 -29 14 -2 14 -1 1 3 -11 3 -14 13 -11 29
2 13 0 24 -5 24 -5 0 -8 -12 -6 -27z"/>
<path d="M1772 908 c9 -26 48 -41 48 -18 0 5 -7 7 -15 4 -11 -5 -15 1 -15 18
0 14 -6 25 -14 25 -11 0 -12 -6 -4 -29z"/>
<path d="M1830 930 c0 -6 7 -13 15 -16 8 -4 15 -11 15 -16 0 -6 -7 -8 -15 -4
-8 3 -15 1 -15 -4 0 -6 9 -10 20 -10 11 0 20 6 20 13 0 7 -9 20 -20 30 -11 9
-20 12 -20 7z"/>
<path d="M238 923 c7 -3 16 -2 19 1 4 3 -2 6 -13 5 -11 0 -14 -3 -6 -6z"/>
<path d="M1153 913 c18 -5 24 -43 7 -43 -5 0 -10 -12 -10 -26 0 -46 -48 -112
-73 -98 -8 5 -8 3 1 -7 11 -12 18 -9 42 18 16 18 32 45 36 60 3 16 10 38 16
50 13 28 4 53 -19 52 -17 -1 -17 -2 0 -6z"/>
<path d="M244 902 c5 -8 -4 -12 -26 -13 -32 -2 -32 -2 -4 -6 32 -5 55 10 35
22 -8 5 -10 4 -5 -3z"/>
<path d="M900 876 c0 -8 4 -17 9 -20 5 -4 7 3 4 14 -6 23 -13 26 -13 6z"/>
<path d="M969 873 c-12 -16 -12 -17 1 -7 8 7 24 14 35 17 19 4 19 5 -1 6 -12
0 -28 -7 -35 -16z"/>
<path d="M1088 874 c25 -17 29 -56 7 -74 -8 -7 -15 -20 -14 -29 0 -11 3 -10 9
5 5 12 13 25 19 29 25 15 1 85 -30 85 -8 0 -4 -7 9 -16z"/>
<path d="M7 853 c7 -2 19 -2 26 0 6 3 1 5 -13 5 -14 0 -19 -2 -13 -5z"/>
<path d="M605 850 c3 -5 8 -10 11 -10 2 0 4 5 4 10 0 6 -5 10 -11 10 -5 0 -7
-4 -4 -10z"/>
<path d="M839 843 c-13 -16 -12 -17 4 -4 9 7 17 15 17 17 0 8 -8 3 -21 -13z"/>
<path d="M480 815 c-14 -8 -20 -14 -15 -14 6 0 21 6 35 14 14 8 21 14 15 14
-5 0 -21 -6 -35 -14z"/>
<path d="M827 801 c-4 -17 -3 -21 5 -13 5 5 8 16 6 23 -3 8 -7 3 -11 -10z"/>
<path d="M332 783 c-40 -9 -71 -18 -68 -20 4 -5 168 26 175 33 8 7 -33 2 -107
-13z"/>
<path d="M49 758 c-7 -18 -12 -40 -11 -49 1 -12 -5 -16 -21 -13 -21 4 -21 4
-2 -5 31 -15 37 -13 34 12 -3 32 17 75 38 80 15 4 14 5 -4 6 -15 1 -25 -8 -34
-31z"/>
<path d="M106 756 c4 -10 18 -16 36 -16 27 0 30 -3 25 -26 -3 -16 -1 -22 5
-16 17 17 4 47 -22 50 -14 2 -31 9 -38 14 -9 8 -11 7 -6 -6z"/>
<path d="M2404 759 c-9 -15 11 -32 32 -26 15 4 14 5 -5 6 -16 1 -21 5 -17 16
6 17 0 20 -10 4z"/>
<path d="M2468 733 c7 -3 16 -2 19 1 4 3 -2 6 -13 5 -11 0 -14 -3 -6 -6z"/>
<path d="M802 678 c-1 -20 -6 -40 -12 -43 -5 -3 -10 -11 -10 -18 0 -6 7 -1 16
11 9 13 14 35 11 55 -4 32 -4 32 -5 -5z"/>
<path d="M2481 665 c-36 -19 -69 -39 -75 -45 -5 -5 -16 -10 -23 -10 -6 0 -23
-11 -36 -24 -14 -14 -44 -30 -67 -36 -23 -6 -68 -28 -99 -49 -56 -37 -216
-103 -258 -105 -11 0 -19 -4 -16 -8 2 -5 -5 -8 -16 -8 -23 0 -116 -35 -134
-50 -7 -6 -21 -18 -32 -26 -11 -9 7 -1 40 17 56 30 167 69 208 72 9 1 17 4 17
8 0 4 7 9 15 13 9 3 15 0 15 -10 0 -8 -14 -20 -31 -26 -45 -16 -28 -20 25 -6
32 8 46 17 46 29 0 10 -5 19 -11 21 -7 2 8 10 32 17 24 7 69 30 100 51 31 21
74 43 95 49 22 6 59 24 83 40 33 22 48 27 58 19 10 -8 8 -14 -12 -30 -32 -25
-32 -34 0 -40 14 -3 25 -2 25 2 0 3 24 16 54 29 30 12 59 28 65 34 5 7 -22 -3
-60 -21 -90 -44 -123 -39 -54 7 28 19 68 45 90 58 22 12 35 23 29 23 -5 0 -31
-13 -56 -29 -41 -26 -47 -27 -50 -13 -3 12 13 26 57 49 33 18 56 32 50 32 -5
0 -39 -15 -74 -34z"/>
<path d="M120 669 c-22 -18 -22 -19 -3 -10 12 6 25 16 28 21 9 15 3 12 -25
-11z"/>
<path d="M727 663 c-11 -37 -17 -98 -8 -78 9 23 22 95 16 95 -2 0 -6 -8 -8
-17z"/>
<path d="M11 633 c7 -10 15 -20 16 -22 2 -2 3 3 3 11 0 9 -7 19 -16 22 -15 6
-15 4 -3 -11z"/>
<path d="M587 632 c-9 -10 -17 -23 -17 -28 0 -4 7 2 16 14 21 30 49 30 40 0
-7 -23 -10 -50 -7 -75 2 -22 35 -14 61 14 23 24 23 25 3 15 -12 -7 -23 -17
-25 -24 -2 -6 -11 -9 -20 -6 -11 5 -14 15 -11 35 9 57 8 67 -8 71 -8 1 -23 -6
-32 -16z"/>
<path d="M89 633 c-1 -5 0 -17 0 -29 2 -15 -7 -25 -29 -34 -17 -7 -29 -15 -26
-17 2 -2 18 3 35 12 26 13 31 21 29 45 -2 28 -7 39 -9 23z"/>
<path d="M813 610 c-32 -13 -29 -22 4 -9 20 7 28 6 35 -3 6 -10 8 -8 8 5 0 19
-13 21 -47 7z"/>
<path d="M2500 599 c0 -5 5 -7 10 -4 6 3 10 8 10 11 0 2 -4 4 -10 4 -5 0 -10
-5 -10 -11z"/>
<path d="M21 584 c0 -11 3 -14 6 -6 3 7 2 16 -1 19 -3 4 -6 -2 -5 -13z"/>
<path d="M820 570 c-6 -11 -8 -20 -6 -20 3 0 10 9 16 20 6 11 8 20 6 20 -3 0
-10 -9 -16 -20z"/>
<path d="M494 556 c-10 -8 -17 -16 -14 -19 3 -2 14 4 24 14 23 22 18 25 -10 5z"/>
<path d="M732 538 c-7 -7 -12 -18 -12 -25 0 -14 -59 -72 -74 -73 -4 0 -6 11
-4 25 3 13 1 22 -3 19 -14 -8 -10 -44 4 -50 17 -6 78 51 94 89 14 30 13 33 -5
15z"/>
<path d="M768 543 c6 -2 18 -2 25 0 6 3 1 5 -13 5 -14 0 -19 -2 -12 -5z"/>
<path d="M1979 514 c-13 -13 -28 -24 -36 -24 -7 0 -13 -4 -13 -8 0 -5 -10 -8
-22 -8 -13 1 -22 -4 -20 -11 1 -7 -4 -14 -10 -14 -7 -1 -20 -3 -28 -4 -8 -1
-27 -3 -41 -4 -14 0 -37 -11 -51 -24 -14 -13 -49 -34 -79 -46 -30 -13 -61 -29
-69 -36 -8 -7 -21 -10 -28 -8 -8 3 -10 -1 -6 -12 6 -14 9 -13 30 6 13 12 24
18 24 12 0 -7 9 -9 22 -5 21 5 21 6 3 12 -17 6 -16 8 8 14 51 12 137 58 130
69 -3 6 -1 7 5 3 7 -4 26 -3 44 3 52 16 114 40 103 41 -17 0 60 48 86 52 24 4
24 4 -3 9 -20 5 -33 0 -49 -17z"/>
<path d="M2520 533 c-14 -3 -29 -9 -35 -13 -5 -4 -38 -16 -73 -25 -34 -10 -60
-20 -58 -22 5 -6 206 55 206 62 0 3 -3 4 -7 4 -5 -1 -19 -4 -33 -6z"/>
<path d="M1710 520 c0 -5 5 -10 11 -10 5 0 7 5 4 10 -3 6 -8 10 -11 10 -2 0
-4 -4 -4 -10z"/>
<path d="M18 503 c6 -2 18 -2 25 0 6 3 1 5 -13 5 -14 0 -19 -2 -12 -5z"/>
<path d="M567 490 c8 -29 23 -35 39 -16 8 9 9 11 2 6 -17 -14 -28 -12 -28 4 0
8 -4 17 -9 20 -5 4 -7 -3 -4 -14z"/>
<path d="M2505 490 c-33 -22 -146 -59 -212 -70 -60 -10 -57 14 4 31 26 7 43
14 37 16 -5 2 -67 -17 -139 -42 -118 -40 -158 -59 -77 -36 17 5 32 6 32 2 0
-5 -26 -14 -57 -20 -59 -11 -172 -60 -141 -61 9 0 19 4 23 10 3 6 15 5 30 -2
22 -10 23 -12 8 -23 -19 -14 148 23 292 66 95 28 260 98 251 106 -2 3 -27 -7
-55 -21 -28 -14 -58 -26 -66 -26 -9 0 -23 -7 -31 -15 -14 -14 -41 -20 -72 -16
-7 1 -19 -5 -27 -12 -13 -14 -219 -67 -256 -67 -8 0 -23 6 -33 13 -16 12 -15
14 20 24 22 6 66 17 99 23 33 6 68 16 77 21 9 5 36 11 60 15 70 10 179 45 237
76 30 15 48 28 40 28 -8 0 -27 -9 -44 -20z m-267 -75 c-11 -8 -68 -23 -68 -16
0 9 52 29 63 23 5 -2 7 -5 5 -7z"/>
<path d="M1629 482 c-8 -10 -19 -24 -24 -32 -8 -13 -7 -13 9 -1 16 13 41 51
34 51 -2 0 -10 -8 -19 -18z"/>
<path d="M388 457 c-14 -18 -27 -41 -29 -52 -2 -11 -15 -25 -29 -32 -17 -9
-20 -13 -8 -13 20 0 48 26 48 46 0 14 7 25 39 60 7 8 11 17 9 20 -3 2 -17 -10
-30 -29z"/>
<path d="M500 479 c0 -5 5 -7 10 -4 6 3 10 8 10 11 0 2 -4 4 -10 4 -5 0 -10
-5 -10 -11z"/>
<path d="M1681 470 c-13 -11 -19 -20 -14 -20 6 0 18 9 28 20 23 25 17 25 -14
0z"/>
<path d="M71 458 c-1 -22 4 -28 18 -28 15 0 21 -8 24 -32 4 -32 4 -32 5 5 2
30 -1 37 -17 37 -12 0 -21 8 -24 23 -4 19 -4 18 -6 -5z"/>
<path d="M466 424 c-5 -14 -4 -15 9 -4 17 14 19 20 6 20 -5 0 -12 -7 -15 -16z"/>
<path d="M1595 400 c-4 -6 -10 -8 -15 -5 -15 9 -37 -39 -29 -65 l7 -25 1 27
c1 39 12 63 21 47 6 -8 11 -5 19 10 12 21 8 30 -4 11z"/>
<path d="M424 378 l-19 -23 23 19 c12 11 22 21 22 23 0 8 -8 2 -26 -19z"/>
<path d="M168 383 c6 -2 18 -2 25 0 6 3 1 5 -13 5 -14 0 -19 -2 -12 -5z"/>
<path d="M219 367 c5 -5 24 -7 42 -5 33 3 33 4 -8 8 -23 3 -39 2 -34 -3z"/>
<path d="M340 340 c-16 -13 -49 -22 -90 -25 -35 -4 -67 -9 -70 -11 -2 -3 20
-3 50 0 30 2 62 5 71 5 8 1 30 12 49 26 19 14 30 25 24 24 -5 0 -20 -9 -34
-19z"/>
<path d="M1873 342 c-62 -25 -64 -34 -2 -13 87 30 86 29 64 30 -11 0 -39 -8
-62 -17z"/>
<path d="M1509 333 c-13 -16 -12 -17 4 -4 16 13 21 21 13 21 -2 0 -10 -8 -17
-17z"/>
<path d="M1698 333 c7 -3 16 -2 19 1 4 3 -2 6 -13 5 -11 0 -14 -3 -6 -6z"/>
<path d="M2385 304 c-33 -12 -80 -23 -105 -23 -59 -1 -224 -46 -250 -68 -40
-34 -11 -74 42 -58 17 6 20 4 15 -9 -5 -13 1 -16 34 -16 24 0 38 -4 34 -10 -3
-6 6 -4 22 2 27 13 27 13 -22 16 -27 2 -53 9 -57 15 -4 7 -22 12 -40 12 -23 0
-34 5 -36 17 -3 16 5 17 102 11 83 -5 109 -3 123 8 9 8 14 9 10 2 -4 -6 -2
-13 5 -15 6 -2 -4 -14 -23 -26 -40 -26 -30 -30 12 -5 16 10 29 24 29 33 0 24
59 50 117 53 28 1 46 5 40 9 -7 4 6 8 28 8 29 0 36 -3 25 -10 -8 -5 -12 -10
-8 -10 4 0 24 12 45 26 21 15 29 23 17 20 -16 -5 -23 0 -32 19 -15 31 -45 31
-127 -1z m123 -9 l12 -25 -75 0 c-41 0 -75 4 -75 9 0 11 69 39 101 40 18 1 29
-6 37 -24z m-198 -30 c0 -8 -44 -23 -129 -45 -53 -14 -85 -17 -106 -11 -30 8
-29 8 25 24 30 9 71 20 90 26 38 10 120 14 120 6z m83 -12 c-7 -2 -21 -2 -30
0 -10 3 -4 5 12 5 17 0 24 -2 18 -5z"/>
<path d="M114 274 c-18 -23 -39 -37 -57 -39 -30 -4 -57 -21 -57 -38 0 -6 9 -1
21 11 11 12 24 20 29 17 10 -6 60 15 60 25 0 4 11 19 25 34 13 14 21 26 16 26
-4 0 -21 -16 -37 -36z"/>
<path d="M1880 300 c-21 -7 -21 -8 -5 -9 11 0 27 4 35 9 18 11 5 11 -30 0z"/>
<path d="M1453 293 c4 -3 -1 -16 -10 -27 -18 -21 -18 -21 4 -2 20 16 23 36 6
36 -4 0 -3 -3 0 -7z"/>
<path d="M1485 290 c-3 -5 -1 -10 4 -10 6 0 11 5 11 10 0 6 -2 10 -4 10 -3 0
-8 -4 -11 -10z"/>
<path d="M1524 289 c-4 -8 -3 -9 5 -5 6 4 19 2 28 -6 14 -11 15 -11 11 2 -6
19 -34 25 -44 9z"/>
<path d="M1780 290 c0 -8 5 -22 10 -30 9 -13 10 -13 10 0 0 8 -5 22 -10 30 -9
13 -10 13 -10 0z"/>
<path d="M1839 295 c-4 -5 -4 -28 0 -49 6 -37 7 -38 21 -21 8 11 10 16 3 12
-8 -5 -13 4 -15 30 -2 21 -6 34 -9 28z"/>
<path d="M1687 278 c-4 -11 -13 -15 -26 -11 -12 3 -21 1 -21 -6 0 -5 7 -8 15
-5 11 5 15 -1 16 -22 2 -28 2 -28 6 -4 3 14 10 28 15 31 6 4 8 13 6 20 -3 10
-6 9 -11 -3z"/>
<path d="M1340 269 c-19 -5 -79 -15 -133 -24 -54 -8 -104 -18 -110 -22 -7 -4
-17 -8 -24 -9 -6 -1 -19 -7 -30 -13 -15 -9 -13 -10 12 -5 17 4 35 11 41 15 6
5 53 16 105 24 149 23 169 27 175 36 3 5 4 9 2 8 -2 -1 -19 -5 -38 -10z"/>
<path d="M1539 251 c13 -10 21 -23 17 -30 -4 -6 -2 -11 4 -11 22 0 5 43 -20
52 l-25 8 24 -19z"/>
<path d="M1615 239 c0 -16 3 -29 7 -29 11 0 10 47 0 54 -4 2 -8 -9 -7 -25z"/>
<path d="M1721 262 c9 -4 15 -17 14 -29 -1 -13 2 -23 7 -23 4 0 8 14 8 30 0
25 -4 30 -22 29 -18 0 -19 -2 -7 -7z"/>
<path d="M1871 262 c9 -4 15 -17 14 -29 -1 -13 2 -23 7 -23 4 0 8 14 8 30 0
25 -4 30 -22 29 -18 0 -19 -2 -7 -7z"/>
<path d="M1910 266 c0 -2 7 -6 15 -10 8 -3 15 -1 15 4 0 6 -7 10 -15 10 -8 0
-15 -2 -15 -4z"/>
<path d="M1985 240 c0 -16 3 -30 7 -30 5 0 8 14 8 30 0 17 -4 30 -8 30 -4 0
-8 -13 -7 -30z"/>
<path d="M1448 231 c-25 -16 -49 -27 -52 -23 -4 3 -12 -2 -19 -10 -18 -23 -57
-33 -57 -15 0 22 -27 39 -50 32 -31 -10 -24 -25 10 -18 22 4 30 2 30 -8 0 -11
-22 -14 -102 -13 -112 1 -108 2 -252 -50 -73 -26 -116 -36 -160 -36 -83 0 -96
-2 -90 -11 6 -10 -24 -19 -66 -18 -44 1 -102 -7 -160 -20 -25 -6 -76 -10 -115
-10 -67 1 -69 1 -40 14 17 8 44 14 62 15 36 0 136 20 131 25 -5 5 -132 -14
-178 -26 -19 -5 -46 -19 -60 -31 -14 -13 -21 -20 -14 -15 6 4 48 7 94 6 51 -1
77 -5 69 -10 -24 -15 -4 -10 43 11 25 11 80 22 129 26 46 3 94 13 106 20 13 8
49 14 87 14 36 0 87 7 113 16 26 9 53 17 60 18 7 1 16 5 19 9 10 10 26 9 20
-1 -3 -5 20 -8 52 -6 l57 3 -65 -26 c-54 -22 -80 -26 -155 -26 -79 0 -83 -1
-30 -6 l60 -6 -60 -14 c-33 -8 -81 -13 -106 -12 -25 1 -63 -6 -85 -14 -21 -9
-28 -13 -14 -9 14 3 54 8 90 10 79 4 220 36 309 71 56 21 85 25 187 27 105 2
125 5 158 24 21 13 46 22 55 21 38 -3 68 2 87 16 18 14 17 14 -9 5 -16 -5 -44
-10 -64 -10 -20 0 -51 -9 -69 -21 -29 -17 -52 -21 -159 -22 -69 -1 -151 0
-183 3 l-57 5 58 19 c48 15 63 16 87 6 24 -10 33 -10 45 0 19 16 114 8 125
-10 6 -9 12 -10 26 -1 14 8 15 11 4 11 -19 1 67 40 87 40 8 0 12 4 8 10 -3 5
8 16 25 25 16 8 30 18 30 20 0 8 -4 6 -52 -24z"/>
<path d="M1585 231 c-3 -5 -2 -12 3 -15 5 -3 9 1 9 9 0 17 -3 19 -12 6z"/>
<path d="M1700 225 c-7 -9 -8 -15 -2 -15 5 0 12 7 16 15 3 8 4 15 2 15 -2 0
-9 -7 -16 -15z"/>
<path d="M1800 231 c0 -5 5 -13 10 -16 6 -3 10 -2 10 4 0 5 -4 13 -10 16 -5 3
-10 2 -10 -4z"/>
<path d="M1957 233 c-10 -9 -9 -23 1 -23 5 0 9 7 9 15 0 17 -1 18 -10 8z"/>
<path d="M1478 208 c5 -5 16 -8 23 -6 8 3 3 7 -10 11 -17 4 -21 3 -13 -5z"/>
<path d="M260 166 c0 -42 2 -46 24 -46 32 0 36 8 27 50 -5 26 -13 36 -29 38
-20 3 -22 -1 -22 -42z m40 19 c0 -8 -7 -15 -15 -15 -8 0 -15 7 -15 15 0 8 7
15 15 15 8 0 15 -7 15 -15z m8 -42 c2 -8 -5 -13 -17 -13 -12 0 -21 6 -21 16 0
18 31 15 38 -3z"/>
<path d="M380 185 c0 -14 -6 -25 -12 -25 -9 0 -10 -3 -2 -8 6 -4 14 -14 17
-22 3 -8 6 6 6 33 1 26 -1 47 -4 47 -3 0 -5 -11 -5 -25z"/>
<path d="M403 165 c0 -27 2 -38 4 -22 2 15 2 37 0 50 -2 12 -4 0 -4 -28z"/>
<path d="M2488 181 c-36 -16 -79 -38 -95 -49 -35 -25 -127 -56 -145 -49 -9 4
-9 6 2 6 8 1 21 10 28 22 12 20 12 19 -17 -2 -17 -12 -28 -26 -25 -31 3 -4
-12 -9 -33 -10 -35 -1 -50 -3 -63 -8 -22 -8 -70 -8 -70 0 0 6 -16 10 -35 10
-21 0 -35 5 -36 13 0 6 -5 1 -10 -12 -6 -17 -6 -28 1 -35 8 -8 9 -6 5 6 -6 15
-1 18 29 18 48 0 47 -23 -1 -42 l-38 -14 63 -2 c57 -2 63 -1 71 21 8 20 20 26
80 36 40 6 89 17 111 25 22 7 40 11 40 7 -1 -19 -31 -41 -56 -41 -16 0 -50 -6
-75 -13 -39 -10 -45 -14 -33 -25 8 -7 14 -9 14 -3 0 11 55 31 88 31 25 0 25 0
6 -21 -19 -22 -19 -22 4 -8 13 8 34 33 48 56 26 45 81 83 158 109 25 9 48 20
52 25 7 12 8 12 -68 -20z m-378 -156 c0 -11 -10 -15 -37 -14 l-38 1 30 13 c39
18 45 18 45 0z"/>
<path d="M550 162 c0 -23 3 -42 8 -42 9 0 7 68 -2 77 -3 4 -6 -12 -6 -35z"/>
<path d="M1653 164 l-28 -26 33 22 c29 20 39 30 28 30 -3 0 -18 -12 -33 -26z"/>
<path d="M1715 169 c-16 -10 -25 -19 -19 -19 7 0 22 9 35 20 30 24 23 24 -16
-1z"/>
<path d="M1789 163 l-24 -28 28 24 c15 14 27 26 27 28 0 8 -8 1 -31 -24z"/>
<path d="M331 148 c2 -30 2 -30 6 -6 2 15 12 29 21 31 12 3 10 5 -5 6 -20 1
-23 -4 -22 -31z"/>
<path d="M421 133 c1 -53 6 -49 11 10 2 20 0 37 -4 37 -4 0 -8 -21 -7 -47z"/>
<path d="M466 164 c-3 -9 -2 -23 3 -31 6 -12 9 -8 13 16 5 32 -5 42 -16 15z"/>
<path d="M955 170 c-3 -6 1 -7 9 -4 18 7 21 14 7 14 -6 0 -13 -4 -16 -10z"/>
<path d="M532 140 c0 -14 2 -19 5 -12 2 6 2 18 0 25 -3 6 -5 1 -5 -13z"/>
<path d="M1267 149 c7 -7 15 -10 18 -7 3 3 -2 9 -12 12 -14 6 -15 5 -6 -5z"/>
<path d="M500 135 c0 -8 2 -15 4 -15 2 0 6 7 10 15 3 8 1 15 -4 15 -6 0 -10
-7 -10 -15z"/>
<path d="M760 140 c8 -5 24 -10 34 -10 26 0 18 6 -19 14 -22 5 -26 4 -15 -4z"/>
<path d="M850 140 l-35 -7 32 -2 c17 0 35 4 38 9 3 6 5 9 3 9 -2 -1 -19 -5
-38 -9z"/>
<path d="M1661 105 l1 -50 8 40 c5 22 4 44 -1 50 -5 5 -9 -11 -8 -40z"/>
<path d="M1717 136 c-4 -10 -5 -21 -2 -24 9 -9 17 6 13 25 -3 17 -4 17 -11 -1z"/>
<path d="M1843 105 c0 -27 2 -38 4 -22 2 15 2 37 0 50 -2 12 -4 0 -4 -28z"/>
<path d="M1863 105 c0 -27 2 -38 4 -22 2 15 2 37 0 50 -2 12 -4 0 -4 -28z"/>
<path d="M670 130 c-10 -6 -2 -7 25 -3 49 7 58 13 19 13 -16 0 -36 -5 -44 -10z"/>
<path d="M598 112 c-10 -2 -18 -8 -18 -13 0 -14 30 -23 40 -13 13 13 -2 31
-22 26z"/>
<path d="M1540 103 c0 -14 2 -15 9 -4 5 7 14 10 20 7 6 -4 11 -2 11 3 0 6 -9
11 -20 11 -12 0 -20 -7 -20 -17z"/>
<path d="M1597 113 c-4 -3 -7 -16 -7 -29 0 -23 25 -40 35 -23 4 5 1 8 -7 7 -8
-2 -13 7 -13 25 1 30 1 30 -8 20z"/>
<path d="M1742 90 c0 -19 2 -27 5 -17 2 9 2 25 0 35 -3 9 -5 1 -5 -18z"/>
<path d="M1760 90 c0 -16 2 -30 4 -30 2 0 6 13 8 30 3 16 1 30 -4 30 -4 0 -8
-13 -8 -30z"/>
<path d="M1887 113 c-9 -9 -9 -53 1 -53 4 0 7 14 7 30 0 17 0 30 -1 30 0 0 -4
-3 -7 -7z"/>
<path d="M1930 110 c0 -5 9 -19 20 -30 11 -11 20 -15 20 -10 0 6 -9 19 -20 30
-11 11 -20 16 -20 10z"/>
<path d="M1681 103 c-2 -20 11 -43 20 -37 5 3 9 10 9 15 0 6 -4 8 -9 4 -5 -3
-12 3 -14 12 -3 10 -5 13 -6 6z"/>
<path d="M2106 101 c-4 -5 3 -7 14 -4 23 6 26 13 6 13 -8 0 -17 -4 -20 -9z"/>
<path d="M538 93 c6 -2 18 -2 25 0 6 3 1 5 -13 5 -14 0 -19 -2 -12 -5z"/>
<path d="M1487 84 c-18 -10 -41 -13 -66 -9 -30 4 -40 2 -45 -11 -9 -24 -1 -28
35 -15 18 6 41 11 53 10 16 0 13 -4 -14 -16 -21 -9 -48 -13 -70 -9 -19 3 -75
8 -124 12 -86 6 -139 -3 -221 -37 -34 -14 35 0 84 18 32 11 61 14 110 9 183
-18 185 -18 235 2 37 14 50 25 51 41 1 11 1 21 1 21 -1 -1 -13 -8 -29 -16z"/>
<path d="M1791 74 c0 -11 3 -14 6 -6 3 7 2 16 -1 19 -3 4 -6 -2 -5 -13z"/>
<path d="M2545 80 c-4 -6 -11 -8 -16 -5 -5 4 -12 -1 -15 -9 -3 -9 -10 -14 -14
-11 -7 4 -148 -42 -160 -52 -2 -2 19 -3 48 -2 40 2 65 11 112 41 33 20 60 40
60 43 0 8 -8 6 -15 -5z m-85 -54 c0 -2 -7 -7 -16 -10 -8 -3 -12 -2 -9 4 6 10
25 14 25 6z"/>
<path d="M758 63 c7 -3 16 -2 19 1 4 3 -2 6 -13 5 -11 0 -14 -3 -6 -6z"/>
<path d="M968 25 c-4 -17 -1 -25 8 -25 8 0 14 8 15 18 0 15 2 14 10 -3 8 -18
8 -18 6 5 -3 34 -33 38 -39 5z"/>
<path d="M1541 24 c-20 -15 -46 -16 -195 -11 -94 3 -187 2 -206 -2 -23 -6 36
-9 172 -10 191 -1 210 1 240 19 18 11 28 20 23 20 -6 0 -21 -7 -34 -16z"/>
</g>
</svg>
